# xmcd
#
# Track frame offsets: 
#        150
#        29171
#        41961
#        58560
#        74198
#        90818
#        112121
#        125073
#        140037
#        155848
#        173204
#        187508
#        206902
#        224193
#        240424
#        256395
#
# Disc length: 3555 seconds
#
# Revision: 1
# Processed by: cddbd v1.5.2PL0 Copyright (c) Steve Scherf et al.
# Submitted via: ExactAudioCopyFreeDBPlugin 1.0
#
DISCID=030de110
DTITLE=Various Artist - Sun Record Company - 50 Golden Years 1952-2002 (2002)
DTITLE=[CD8]
DYEAR=2002
DGENRE=Pop
TTITLE0=Sonny Burgess - Red Headed Woman
TTITLE1=Jack Clement - The Black Haired Man
TTITLE2=Billy Riley - Trouble Bound
TTITLE3=Malcolm Yelvington - Rockin' With My Baby
TTITLE4=Rufus Thomas, Jr - Save That Money
TTITLE5=Jerry Lee Lewis And His Pumping Piano - Little Queenie
TTITLE6=Gene Simmons - I Done Told You
TTITLE7=Carl Perkins - Lend Me Your Comb
TTITLE8=Barbara Pittman - Two Young Fools In Love
TTITLE9=Dickey Lee and Collegiates - Good Lovin'
TTITLE10=Charlie Rich With Gene Lowery Chorus - Lonely Weekends
TTITLE11=Billy 'The Kid' Emerson - When It Rains It Pours
TTITLE12=Carl Mann - Mona Lisa
TTITLE13=Jerry Lee Lewis - Hillbilly Fever
TTITLE14=Johnny Powers - Be Mine, All Mine
TTITLE15=Jesters - Cadillac Man
EXTD=
EXTT0=
EXTT1=
EXTT2=
EXTT3=
EXTT4=
EXTT5=
EXTT6=
EXTT7=
EXTT8=
EXTT9=
EXTT10=
EXTT11=
EXTT12=
EXTT13=
EXTT14=
EXTT15=
PLAYORDER=
